<?xml version="1.0" encoding="utf-8"?>
<svg xmlns="http://www.w3.org/2000/svg"
	xmlns:xlink="http://www.w3.org/1999/xlink"
	width="58px" height="57px" viewBox="0 0 58 57">
<path fillRule="evenodd" d="M 57.27 53.81C 57.27 53.81 54.31 56.77 54.31 56.77 54.31 56.77 38 40.45 38 40.45 37.06 41.3 36.03 42.05 34.91 42.7 33.78 43.36 32.61 43.92 31.39 44.39 30.17 44.86 28.88 45.21 27.52 45.45 26.16 45.68 24.83 45.8 23.52 45.8 20.33 45.8 17.35 45.19 14.59 43.97 11.82 42.75 9.4 41.11 7.34 39.05 5.28 36.99 3.66 34.57 2.49 31.8 1.32 29.04 0.73 26.11 0.73 23.02 0.73 19.83 1.32 16.85 2.49 14.09 3.66 11.32 5.28 8.91 7.34 6.84 9.4 4.78 11.82 3.17 14.59 1.99 17.35 0.82 20.33 0.23 23.52 0.23 26.61 0.23 29.54 0.82 32.3 1.99 35.07 3.17 37.48 4.78 39.55 6.84 41.61 8.91 43.25 11.32 44.47 14.09 45.69 16.85 46.3 19.83 46.3 23.02 46.3 24.33 46.18 25.67 45.95 27.02 45.71 28.38 45.36 29.67 44.89 30.89 44.42 32.11 43.86 33.28 43.2 34.41 42.55 35.53 41.8 36.56 40.95 37.5 40.95 37.5 57.27 53.81 57.27 53.81 57.27 53.81 57.27 53.81 57.27 53.81ZM 3.12 23.02C 3.12 25.83 3.64 28.45 4.67 30.89 5.7 33.33 7.15 35.48 9.03 37.36 10.91 39.24 13.09 40.71 15.57 41.79 18.05 42.87 20.7 43.41 23.52 43.41 26.33 43.41 28.95 42.87 31.39 41.79 33.83 40.71 35.98 39.24 37.86 37.36 39.73 35.48 41.21 33.33 42.29 30.89 43.37 28.45 43.91 25.83 43.91 23.02 43.91 20.2 43.37 17.56 42.29 15.07 41.21 12.59 39.73 10.41 37.86 8.53 35.98 6.66 33.83 5.2 31.39 4.17 28.95 3.14 26.33 2.62 23.52 2.62 20.7 2.62 18.05 3.14 15.57 4.17 13.09 5.2 10.91 6.66 9.03 8.53 7.15 10.41 5.7 12.59 4.67 15.07 3.64 17.56 3.12 20.2 3.12 23.02 3.12 23.02 3.12 23.02 3.12 23.02Z" fill="rgb(83,115,253)"/></svg>