<?xml version="1.0" encoding="utf-8"?>
<svg xmlns="http://www.w3.org/2000/svg"
	xmlns:xlink="http://www.w3.org/1999/xlink"
	width="60px" height="61px" viewBox="0 0 60 61">
<path fillRule="evenodd" d="M 30 0.55C 34.12 0.55 38.02 1.32 41.67 2.87 45.33 4.41 48.51 6.55 51.23 9.27 53.95 11.99 56.09 15.17 57.63 18.83 59.18 22.48 59.95 26.38 59.95 30.5 59.95 34.63 59.18 38.52 57.63 42.17 56.09 45.83 53.95 49.02 51.23 51.73 48.51 54.45 45.33 56.59 41.67 58.13 38.02 59.68 34.12 60.45 30 60.45 25.87 60.45 21.98 59.68 18.33 58.13 14.67 56.59 11.48 54.45 8.77 51.73 6.05 49.02 3.91 45.83 2.37 42.17 0.82 38.52 0.05 34.63 0.05 30.5 0.05 26.38 0.82 22.48 2.37 18.83 3.91 15.17 6.05 11.99 8.77 9.27 11.48 6.55 14.67 4.41 18.33 2.87 21.98 1.32 25.87 0.55 30 0.55 30 0.55 30 0.55 30 0.55ZM 30 58.06C 33.84 58.06 37.43 57.34 40.76 55.88 44.08 54.43 47.02 52.49 49.55 50.05 51.98 47.52 53.93 44.59 55.38 41.26 56.84 37.93 57.56 34.35 57.56 30.5 57.56 26.66 56.84 23.07 55.38 19.74 53.93 16.42 51.98 13.48 49.55 10.95 47.02 8.52 44.08 6.57 40.76 5.12 37.43 3.66 33.84 2.94 30 2.94 26.15 2.94 22.57 3.66 19.24 5.12 15.91 6.57 12.98 8.52 10.45 10.95 8.01 13.48 6.07 16.42 4.62 19.74 3.16 23.07 2.44 26.66 2.44 30.5 2.44 34.35 3.16 37.93 4.62 41.26 6.07 44.59 8.01 47.52 10.45 50.05 12.98 52.49 15.91 54.43 19.24 55.88 22.57 57.34 26.15 58.06 30 58.06 30 58.06 30 58.06 30 58.06ZM 45.05 19.81C 45.33 19.44 45.73 19.25 46.24 19.25 46.76 19.25 47.2 19.44 47.58 19.81 47.86 20.19 48 20.63 48 21.15 48 21.66 47.81 22.06 47.44 22.34 47.44 22.34 26.91 42.31 26.91 42.31 26.81 42.5 26.65 42.62 26.41 42.66 26.18 42.71 25.97 42.73 25.78 42.73 25.5 42.73 25.24 42.71 25.01 42.66 24.77 42.62 24.61 42.5 24.52 42.31 24.52 42.31 16.5 34.3 16.5 34.3 16.12 33.92 15.94 33.48 15.94 32.96 15.94 32.45 16.12 32.05 16.5 31.77 16.78 31.39 17.18 31.2 17.7 31.2 18.21 31.2 18.66 31.39 19.03 31.77 19.03 31.77 25.78 38.52 25.78 38.52 25.78 38.52 45.05 19.81 45.05 19.81 45.05 19.81 45.05 19.81 45.05 19.81Z" fill="rgb(255,98,99)"/></svg>